<?xml version="1.0" encoding="UTF-8"?>
<svg id="Layer_1" data-name="Layer 1" xmlns="http://www.w3.org/2000/svg" viewBox="0 0 104.47 104.47">
  <defs>
    <style>
      .cls-1 {
        fill: #fff;
      }

      .cls-2 {
        fill: none;
        stroke: #778da9;
        stroke-miterlimit: 10;
        stroke-width: 7px;
      }
    </style>
  </defs>
  <path class="cls-1" d="M34.95,25.12c.87-.26,1.8-.39,2.78-.39,2.16,0,3.82.46,4.98,1.38,1.03.81,1.54,1.9,1.54,3.28,0,.98-.08,2.01-.23,3.08-.11.83-.16,1.96-.16,3.37,0,4.5.69,8.67,2.06,12.51,2.71-1.51,6.63-3.6,11.76-6.29,1.62-.87,2.47-1.33,2.55-1.38,1.11-.66,1.67-1.38,1.67-2.16,0-.68-.47-1.36-1.41-2.06l2.26-1.28c1.75.74,3.1,1.7,4.06,2.88.87,1.05,1.31,2.13,1.31,3.24,0,1.55-.85,2.56-2.55,3.01-1.68.44-3.78,1.22-6.29,2.36-9.41,4.22-15.88,7.61-19.39,10.19-4.35,3.19-6.52,6.28-6.52,9.27,0,2.58,1.66,4.49,4.98,5.73,2.75,1.05,6.56,1.57,11.43,1.57,6.4,0,10.89-.57,13.46-1.7,1.49-.66,2.7-.98,3.64-.98,1.22,0,2.29.32,3.21.95,1.03.7,1.54,1.53,1.54,2.49,0,1.29-1.32,2.18-3.96,2.69-1.62.31-4.05.59-7.29.85-3.24.26-5.92.39-8.04.39-14.92,0-22.37-3.94-22.37-11.83,0-5.09,4.18-10.35,12.55-15.79-1.99-4.61-3.29-10.62-3.9-18.05-.17-2.23-.58-3.62-1.21-4.19-.59-.52-1.7-.79-3.34-.79l.88-2.36Z"/>
  <circle class="cls-2" cx="52.24" cy="52.24" r="48.74"/>
</svg>